<svg width="40" height="40" viewBox="0 0 40 40" fill="none" xmlns="http://www.w3.org/2000/svg">
<rect width="40" height="40" rx="20" fill="#56565A"/>
<path d="M28.0407 26.5625C26.8508 24.5055 25.0172 23.0305 22.8774 22.3312C23.9359 21.7011 24.7582 20.741 25.2182 19.5983C25.6782 18.4555 25.7503 17.1934 25.4235 16.0057C25.0968 14.818 24.3892 13.7705 23.4094 13.0238C22.4296 12.2772 21.2319 11.8729 20.0001 11.8729C18.7682 11.8729 17.5705 12.2772 16.5907 13.0238C15.6109 13.7705 14.9033 14.818 14.5766 16.0057C14.2498 17.1934 14.322 18.4555 14.7819 19.5983C15.2419 20.741 16.0643 21.7011 17.1227 22.3312C14.9829 23.0297 13.1493 24.5047 11.9594 26.5625C11.9158 26.6336 11.8869 26.7128 11.8743 26.7953C11.8618 26.8778 11.8659 26.962 11.8864 27.0429C11.9069 27.1238 11.9434 27.1998 11.9938 27.2663C12.0442 27.3329 12.1073 27.3887 12.1796 27.4304C12.2519 27.4722 12.3318 27.499 12.4146 27.5094C12.4974 27.5198 12.5815 27.5134 12.6618 27.4908C12.7421 27.4682 12.8171 27.4296 12.8823 27.3776C12.9475 27.3255 13.0016 27.2608 13.0415 27.1875C14.5133 24.6437 17.1149 23.125 20.0001 23.125C22.8852 23.125 25.4868 24.6437 26.9587 27.1875C26.9985 27.2608 27.0526 27.3255 27.1178 27.3776C27.183 27.4296 27.258 27.4682 27.3383 27.4908C27.4187 27.5134 27.5027 27.5198 27.5855 27.5094C27.6683 27.499 27.7482 27.4722 27.8205 27.4304C27.8928 27.3887 27.956 27.3329 28.0063 27.2663C28.0567 27.1998 28.0932 27.1238 28.1137 27.0429C28.1342 26.962 28.1383 26.8778 28.1258 26.7953C28.1133 26.7128 28.0843 26.6336 28.0407 26.5625ZM15.6251 17.5C15.6251 16.6347 15.8816 15.7888 16.3624 15.0694C16.8431 14.3499 17.5264 13.7891 18.3258 13.458C19.1252 13.1269 20.0049 13.0402 20.8536 13.2091C21.7022 13.3779 22.4818 13.7945 23.0937 14.4064C23.7055 15.0183 24.1222 15.7978 24.291 16.6465C24.4598 17.4951 24.3732 18.3748 24.042 19.1742C23.7109 19.9737 23.1501 20.6569 22.4307 21.1377C21.7112 21.6184 20.8654 21.875 20.0001 21.875C18.8401 21.8737 17.728 21.4124 16.9078 20.5922C16.0876 19.772 15.6263 18.6599 15.6251 17.5Z" fill="#2C2C31"/>
</svg>
